# xmcd
#
# Track frame offsets:
# 150
# 14800
# 36790
# 57630
# 74350
# 90570
# 109597
# 128067
# 138717
# 153282
# 172082
#
# Disc length: 2455 seconds
#
# Revision: 0
# Processed by: cddbd v1.4PL0 Copyright (c) Steve Scherf et al.
# Submitted via: Audion 2.6.0 (http://www.panic.com/audion/)
#
DISCID=9d09950b
DTITLE=Magic Sam - West Side Soul
DYEAR=1900
DGENRE=
TTITLE0=That's All I Need
TTITLE1=I Need You So Bad
TTITLE2=I Feel So Good
TTITLE3=All Of Your Love
TTITLE4=I Don't Want No Woman
TTITLE5=Sweet Home Chicago
TTITLE6=I Found A New Love
TTITLE7=Every Night And Every Day
TTITLE8=Lookin' Good
TTITLE9=My Love Will Never Die
TTITLE10=Mama, Mama-Talk To Your Daughter
EXTD=
EXTT0=
EXTT1=
EXTT2=
EXTT3=
EXTT4=
EXTT5=
EXTT6=
EXTT7=
EXTT8=
EXTT9=
EXTT10=
PLAYORDER=
